<mxfile host="app.diagrams.net" modified="2022-05-05T05:19:09.407Z" agent="5.0 (Windows NT 10.0; Win64; x64) AppleWebKit/537.36 (KHTML, like Gecko) Chrome/101.0.4951.41 Safari/537.36" etag="Br4icn7GomlDSUhUjEsW" version="18.0.0" type="github">
  <diagram id="JeQjnTf5V7zRr4dZO3Zx" name="第 1 页">
    <mxGraphModel dx="943" dy="643" grid="1" gridSize="10" guides="1" tooltips="1" connect="1" arrows="1" fold="1" page="1" pageScale="1" pageWidth="827" pageHeight="1169" math="0" shadow="0">
      <root>
        <mxCell id="0" />
        <mxCell id="1" parent="0" />
        <mxCell id="EYGsfXX3YbOh4V-Vkdlm-1" value="" style="edgeStyle=orthogonalEdgeStyle;rounded=0;orthogonalLoop=1;jettySize=auto;html=1;fontSize=16;" edge="1" parent="1" source="EYGsfXX3YbOh4V-Vkdlm-3" target="EYGsfXX3YbOh4V-Vkdlm-9">
          <mxGeometry relative="1" as="geometry" />
        </mxCell>
        <mxCell id="EYGsfXX3YbOh4V-Vkdlm-2" value="" style="edgeStyle=orthogonalEdgeStyle;rounded=0;orthogonalLoop=1;jettySize=auto;html=1;fontSize=16;dashed=1;" edge="1" parent="1" source="EYGsfXX3YbOh4V-Vkdlm-3" target="EYGsfXX3YbOh4V-Vkdlm-13">
          <mxGeometry relative="1" as="geometry" />
        </mxCell>
        <mxCell id="EYGsfXX3YbOh4V-Vkdlm-3" value="&lt;font style=&quot;font-size: 16px&quot;&gt;协同过滤（CF）&lt;/font&gt;" style="rounded=1;whiteSpace=wrap;html=1;fillColor=#dae8fc;strokeColor=#6c8ebf;" vertex="1" parent="1">
          <mxGeometry x="130" y="410" width="120" height="60" as="geometry" />
        </mxCell>
        <mxCell id="EYGsfXX3YbOh4V-Vkdlm-4" value="" style="edgeStyle=orthogonalEdgeStyle;rounded=0;orthogonalLoop=1;jettySize=auto;html=1;fontSize=16;" edge="1" parent="1" source="EYGsfXX3YbOh4V-Vkdlm-5" target="EYGsfXX3YbOh4V-Vkdlm-3">
          <mxGeometry relative="1" as="geometry" />
        </mxCell>
        <mxCell id="EYGsfXX3YbOh4V-Vkdlm-5" value="&lt;font style=&quot;font-size: 16px&quot;&gt;基于用户相似度（UserCF）&lt;/font&gt;" style="rounded=1;whiteSpace=wrap;html=1;fillColor=#dae8fc;strokeColor=#6c8ebf;" vertex="1" parent="1">
          <mxGeometry x="30" y="250" width="120" height="60" as="geometry" />
        </mxCell>
        <mxCell id="EYGsfXX3YbOh4V-Vkdlm-6" value="" style="edgeStyle=orthogonalEdgeStyle;rounded=0;orthogonalLoop=1;jettySize=auto;html=1;fontSize=16;" edge="1" parent="1" source="EYGsfXX3YbOh4V-Vkdlm-7" target="EYGsfXX3YbOh4V-Vkdlm-3">
          <mxGeometry relative="1" as="geometry" />
        </mxCell>
        <mxCell id="EYGsfXX3YbOh4V-Vkdlm-7" value="&lt;font style=&quot;font-size: 16px&quot;&gt;基于物品相似度（ItemCF）&lt;/font&gt;" style="rounded=1;whiteSpace=wrap;html=1;fillColor=#dae8fc;strokeColor=#6c8ebf;" vertex="1" parent="1">
          <mxGeometry x="220" y="250" width="120" height="60" as="geometry" />
        </mxCell>
        <mxCell id="EYGsfXX3YbOh4V-Vkdlm-8" style="edgeStyle=orthogonalEdgeStyle;rounded=0;orthogonalLoop=1;jettySize=auto;html=1;entryX=0;entryY=0.5;entryDx=0;entryDy=0;fontSize=16;dashed=1;" edge="1" parent="1" source="EYGsfXX3YbOh4V-Vkdlm-9" target="EYGsfXX3YbOh4V-Vkdlm-22">
          <mxGeometry relative="1" as="geometry" />
        </mxCell>
        <mxCell id="EYGsfXX3YbOh4V-Vkdlm-9" value="&lt;font style=&quot;font-size: 16px&quot;&gt;MF&lt;/font&gt;" style="whiteSpace=wrap;html=1;rounded=1;fillColor=#dae8fc;strokeColor=#6c8ebf;" vertex="1" parent="1">
          <mxGeometry x="130" y="700" width="120" height="60" as="geometry" />
        </mxCell>
        <mxCell id="EYGsfXX3YbOh4V-Vkdlm-10" value="通过矩阵分解，提升处理稀疏矩阵的能力" style="text;html=1;strokeColor=none;fillColor=none;align=center;verticalAlign=middle;whiteSpace=wrap;rounded=0;fontSize=16;" vertex="1" parent="1">
          <mxGeometry x="30" y="570" width="160" height="30" as="geometry" />
        </mxCell>
        <mxCell id="EYGsfXX3YbOh4V-Vkdlm-11" value="" style="edgeStyle=orthogonalEdgeStyle;rounded=0;orthogonalLoop=1;jettySize=auto;html=1;fontSize=16;fillColor=#f9f7ed;strokeColor=#36393d;" edge="1" parent="1" source="EYGsfXX3YbOh4V-Vkdlm-13" target="EYGsfXX3YbOh4V-Vkdlm-19">
          <mxGeometry relative="1" as="geometry">
            <Array as="points">
              <mxPoint x="550" y="510" />
              <mxPoint x="430" y="510" />
            </Array>
          </mxGeometry>
        </mxCell>
        <mxCell id="EYGsfXX3YbOh4V-Vkdlm-12" value="" style="edgeStyle=orthogonalEdgeStyle;rounded=0;orthogonalLoop=1;jettySize=auto;html=1;fontSize=16;fillColor=#f9f7ed;strokeColor=#36393d;" edge="1" parent="1" source="EYGsfXX3YbOh4V-Vkdlm-13" target="EYGsfXX3YbOh4V-Vkdlm-27">
          <mxGeometry relative="1" as="geometry" />
        </mxCell>
        <mxCell id="EYGsfXX3YbOh4V-Vkdlm-13" value="&lt;font style=&quot;font-size: 16px&quot;&gt;LR&lt;/font&gt;" style="whiteSpace=wrap;html=1;rounded=1;fillColor=#f9f7ed;strokeColor=#36393d;" vertex="1" parent="1">
          <mxGeometry x="490" y="410" width="120" height="60" as="geometry" />
        </mxCell>
        <mxCell id="EYGsfXX3YbOh4V-Vkdlm-14" value="加入更多特征" style="text;html=1;strokeColor=none;fillColor=none;align=center;verticalAlign=middle;whiteSpace=wrap;rounded=0;fontSize=16;" vertex="1" parent="1">
          <mxGeometry x="280" y="410" width="100" height="30" as="geometry" />
        </mxCell>
        <mxCell id="EYGsfXX3YbOh4V-Vkdlm-15" value="" style="edgeStyle=orthogonalEdgeStyle;rounded=0;orthogonalLoop=1;jettySize=auto;html=1;fontSize=16;fillColor=#f9f7ed;strokeColor=#36393d;" edge="1" parent="1" source="EYGsfXX3YbOh4V-Vkdlm-17" target="EYGsfXX3YbOh4V-Vkdlm-19">
          <mxGeometry relative="1" as="geometry" />
        </mxCell>
        <mxCell id="EYGsfXX3YbOh4V-Vkdlm-16" value="" style="edgeStyle=orthogonalEdgeStyle;rounded=0;orthogonalLoop=1;jettySize=auto;html=1;fontSize=16;fillColor=#f9f7ed;strokeColor=#36393d;" edge="1" parent="1" source="EYGsfXX3YbOh4V-Vkdlm-17" target="EYGsfXX3YbOh4V-Vkdlm-24">
          <mxGeometry relative="1" as="geometry">
            <Array as="points">
              <mxPoint x="630" y="510" />
            </Array>
          </mxGeometry>
        </mxCell>
        <mxCell id="EYGsfXX3YbOh4V-Vkdlm-17" value="&lt;font style=&quot;font-size: 16px&quot;&gt;GBDT&lt;/font&gt;" style="whiteSpace=wrap;html=1;rounded=1;fillColor=#f9f7ed;strokeColor=#36393d;" vertex="1" parent="1">
          <mxGeometry x="660" y="480" width="120" height="60" as="geometry" />
        </mxCell>
        <mxCell id="EYGsfXX3YbOh4V-Vkdlm-18" value="" style="edgeStyle=orthogonalEdgeStyle;rounded=0;orthogonalLoop=1;jettySize=auto;html=1;fontSize=16;fillColor=#f9f7ed;strokeColor=#36393d;" edge="1" parent="1" source="EYGsfXX3YbOh4V-Vkdlm-19" target="EYGsfXX3YbOh4V-Vkdlm-22">
          <mxGeometry relative="1" as="geometry" />
        </mxCell>
        <mxCell id="EYGsfXX3YbOh4V-Vkdlm-19" value="&lt;font style=&quot;font-size: 16px&quot;&gt;POLY2&lt;/font&gt;" style="whiteSpace=wrap;html=1;rounded=1;fillColor=#f9f7ed;strokeColor=#36393d;" vertex="1" parent="1">
          <mxGeometry x="370" y="560" width="120" height="60" as="geometry" />
        </mxCell>
        <mxCell id="EYGsfXX3YbOh4V-Vkdlm-20" value="特征交叉" style="text;html=1;align=center;verticalAlign=middle;whiteSpace=wrap;rounded=0;fontSize=16;" vertex="1" parent="1">
          <mxGeometry x="430" y="520" width="70" height="30" as="geometry" />
        </mxCell>
        <mxCell id="EYGsfXX3YbOh4V-Vkdlm-21" value="" style="edgeStyle=orthogonalEdgeStyle;rounded=0;orthogonalLoop=1;jettySize=auto;html=1;fontSize=16;fillColor=#f9f7ed;strokeColor=#36393d;" edge="1" parent="1" source="EYGsfXX3YbOh4V-Vkdlm-22" target="EYGsfXX3YbOh4V-Vkdlm-29">
          <mxGeometry relative="1" as="geometry" />
        </mxCell>
        <mxCell id="EYGsfXX3YbOh4V-Vkdlm-22" value="&lt;font style=&quot;font-size: 16px&quot;&gt;FM&lt;/font&gt;" style="whiteSpace=wrap;html=1;rounded=1;fillColor=#f9f7ed;strokeColor=#36393d;" vertex="1" parent="1">
          <mxGeometry x="370" y="700" width="120" height="60" as="geometry" />
        </mxCell>
        <mxCell id="EYGsfXX3YbOh4V-Vkdlm-23" value="加入更多特征" style="text;html=1;strokeColor=none;fillColor=none;align=center;verticalAlign=middle;whiteSpace=wrap;rounded=0;fontSize=16;" vertex="1" parent="1">
          <mxGeometry x="280" y="690" width="60" height="30" as="geometry" />
        </mxCell>
        <mxCell id="EYGsfXX3YbOh4V-Vkdlm-24" value="&lt;font style=&quot;font-size: 16px&quot;&gt;GBDT+LR&lt;/font&gt;" style="whiteSpace=wrap;html=1;rounded=1;fillColor=#f9f7ed;strokeColor=#36393d;" vertex="1" parent="1">
          <mxGeometry x="570" y="700" width="120" height="60" as="geometry" />
        </mxCell>
        <mxCell id="EYGsfXX3YbOh4V-Vkdlm-25" value="GBDT进行特征组合和筛选" style="text;html=1;align=center;verticalAlign=middle;whiteSpace=wrap;rounded=0;fontSize=16;" vertex="1" parent="1">
          <mxGeometry x="630" y="610" width="100" height="30" as="geometry" />
        </mxCell>
        <mxCell id="EYGsfXX3YbOh4V-Vkdlm-26" value="通过向量特征交叉，解决稀疏性和计算复杂度问题" style="text;html=1;align=center;verticalAlign=middle;whiteSpace=wrap;rounded=0;fontSize=16;" vertex="1" parent="1">
          <mxGeometry x="425" y="650" width="160" height="30" as="geometry" />
        </mxCell>
        <mxCell id="EYGsfXX3YbOh4V-Vkdlm-27" value="&lt;font style=&quot;font-size: 16px&quot;&gt;LS-PLM&lt;/font&gt;" style="whiteSpace=wrap;html=1;rounded=1;fillColor=#f9f7ed;strokeColor=#36393d;" vertex="1" parent="1">
          <mxGeometry x="490" y="250" width="120" height="60" as="geometry" />
        </mxCell>
        <mxCell id="EYGsfXX3YbOh4V-Vkdlm-28" value="样本分组+LR" style="text;html=1;align=center;verticalAlign=middle;whiteSpace=wrap;rounded=0;fontSize=16;" vertex="1" parent="1">
          <mxGeometry x="550" y="340" width="100" height="30" as="geometry" />
        </mxCell>
        <mxCell id="EYGsfXX3YbOh4V-Vkdlm-29" value="&lt;font style=&quot;font-size: 16px&quot;&gt;FFM&lt;/font&gt;" style="whiteSpace=wrap;html=1;rounded=1;fillColor=#f9f7ed;strokeColor=#36393d;" vertex="1" parent="1">
          <mxGeometry x="370" y="870" width="120" height="60" as="geometry" />
        </mxCell>
        <mxCell id="EYGsfXX3YbOh4V-Vkdlm-30" value="引入特征域信息，多域隐向量特征交叉" style="text;html=1;align=center;verticalAlign=middle;whiteSpace=wrap;rounded=0;fontSize=16;" vertex="1" parent="1">
          <mxGeometry x="430" y="810" width="155" height="30" as="geometry" />
        </mxCell>
      </root>
    </mxGraphModel>
  </diagram>
</mxfile>
